<mxfile host="app.diagrams.net" modified="2024-05-02T15:58:08.945Z" agent="Mozilla/5.0 (Macintosh; Intel Mac OS X 10_15_7) AppleWebKit/537.36 (KHTML, like Gecko) Chrome/123.0.0.0 Safari/537.36" etag="8vZ0j4VIlYGy7zCq33NL" version="24.2.5" type="device">
  <diagram name="PÃ¡gina-1" id="HHl78oemqguo1IxOYNIJ">
    <mxGraphModel dx="2336" dy="1910" grid="1" gridSize="10" guides="1" tooltips="1" connect="1" arrows="1" fold="1" page="1" pageScale="1" pageWidth="827" pageHeight="1169" math="0" shadow="0">
      <root>
        <mxCell id="0" />
        <mxCell id="1" parent="0" />
        <mxCell id="76S5RFlLhJ8eeqm_sex8-56" value="KUBERNETS/DOCKER" style="rounded=1;whiteSpace=wrap;html=1;verticalAlign=top;fontStyle=1" vertex="1" parent="1">
          <mxGeometry x="-260" y="-210" width="1240" height="1090" as="geometry" />
        </mxCell>
        <mxCell id="76S5RFlLhJ8eeqm_sex8-25" style="edgeStyle=orthogonalEdgeStyle;rounded=0;orthogonalLoop=1;jettySize=auto;html=1;" edge="1" parent="1" source="76S5RFlLhJ8eeqm_sex8-16" target="76S5RFlLhJ8eeqm_sex8-24">
          <mxGeometry relative="1" as="geometry">
            <Array as="points">
              <mxPoint x="535" y="30" />
              <mxPoint x="535" y="30" />
            </Array>
          </mxGeometry>
        </mxCell>
        <mxCell id="76S5RFlLhJ8eeqm_sex8-29" style="edgeStyle=orthogonalEdgeStyle;rounded=0;orthogonalLoop=1;jettySize=auto;html=1;entryX=1;entryY=0.5;entryDx=0;entryDy=0;" edge="1" parent="1" source="76S5RFlLhJ8eeqm_sex8-16" target="76S5RFlLhJ8eeqm_sex8-27">
          <mxGeometry relative="1" as="geometry">
            <Array as="points">
              <mxPoint x="273" y="230" />
              <mxPoint x="273" y="110" />
            </Array>
          </mxGeometry>
        </mxCell>
        <mxCell id="76S5RFlLhJ8eeqm_sex8-16" value="MICROSERVICES" style="rounded=1;whiteSpace=wrap;html=1;verticalAlign=top;fontStyle=1" vertex="1" parent="1">
          <mxGeometry x="290" y="30" width="633" height="430" as="geometry" />
        </mxCell>
        <mxCell id="76S5RFlLhJ8eeqm_sex8-17" value="" style="edgeStyle=orthogonalEdgeStyle;rounded=0;orthogonalLoop=1;jettySize=auto;html=1;" edge="1" parent="1" source="76S5RFlLhJ8eeqm_sex8-1" target="76S5RFlLhJ8eeqm_sex8-16">
          <mxGeometry relative="1" as="geometry">
            <Array as="points">
              <mxPoint x="300" y="255" />
              <mxPoint x="300" y="255" />
            </Array>
          </mxGeometry>
        </mxCell>
        <mxCell id="76S5RFlLhJ8eeqm_sex8-28" style="edgeStyle=orthogonalEdgeStyle;rounded=0;orthogonalLoop=1;jettySize=auto;html=1;entryX=0.5;entryY=1;entryDx=0;entryDy=0;" edge="1" parent="1" source="76S5RFlLhJ8eeqm_sex8-1" target="76S5RFlLhJ8eeqm_sex8-27">
          <mxGeometry relative="1" as="geometry" />
        </mxCell>
        <mxCell id="76S5RFlLhJ8eeqm_sex8-1" value="api-gateway&lt;div&gt;(Spring cloud gateway)&lt;/div&gt;&lt;div&gt;PORT: 8080&lt;/div&gt;" style="rounded=1;whiteSpace=wrap;html=1;fillColor=#dae8fc;strokeColor=#6c8ebf;" vertex="1" parent="1">
          <mxGeometry x="70" y="225" width="160" height="60" as="geometry" />
        </mxCell>
        <mxCell id="76S5RFlLhJ8eeqm_sex8-50" value="" style="edgeStyle=orthogonalEdgeStyle;rounded=0;orthogonalLoop=1;jettySize=auto;html=1;" edge="1" parent="1" source="76S5RFlLhJ8eeqm_sex8-2" target="76S5RFlLhJ8eeqm_sex8-23">
          <mxGeometry relative="1" as="geometry" />
        </mxCell>
        <mxCell id="76S5RFlLhJ8eeqm_sex8-2" value="ms-product" style="rounded=1;whiteSpace=wrap;html=1;fillColor=#dae8fc;strokeColor=#6c8ebf;" vertex="1" parent="1">
          <mxGeometry x="640" y="179" width="120" height="60" as="geometry" />
        </mxCell>
        <mxCell id="76S5RFlLhJ8eeqm_sex8-49" value="" style="edgeStyle=orthogonalEdgeStyle;rounded=0;orthogonalLoop=1;jettySize=auto;html=1;" edge="1" parent="1" source="76S5RFlLhJ8eeqm_sex8-3" target="76S5RFlLhJ8eeqm_sex8-18">
          <mxGeometry relative="1" as="geometry" />
        </mxCell>
        <mxCell id="76S5RFlLhJ8eeqm_sex8-3" value="ms-order" style="rounded=1;whiteSpace=wrap;html=1;fillColor=#dae8fc;strokeColor=#6c8ebf;" vertex="1" parent="1">
          <mxGeometry x="500" y="179" width="120" height="60" as="geometry" />
        </mxCell>
        <mxCell id="76S5RFlLhJ8eeqm_sex8-48" value="" style="edgeStyle=orthogonalEdgeStyle;rounded=0;orthogonalLoop=1;jettySize=auto;html=1;" edge="1" parent="1" source="76S5RFlLhJ8eeqm_sex8-4" target="76S5RFlLhJ8eeqm_sex8-19">
          <mxGeometry relative="1" as="geometry" />
        </mxCell>
        <mxCell id="76S5RFlLhJ8eeqm_sex8-4" value="ms-notification" style="rounded=1;whiteSpace=wrap;html=1;fillColor=#dae8fc;strokeColor=#6c8ebf;" vertex="1" parent="1">
          <mxGeometry x="781" y="260" width="120" height="60" as="geometry" />
        </mxCell>
        <mxCell id="76S5RFlLhJ8eeqm_sex8-47" value="" style="edgeStyle=orthogonalEdgeStyle;rounded=0;orthogonalLoop=1;jettySize=auto;html=1;" edge="1" parent="1" source="76S5RFlLhJ8eeqm_sex8-5" target="76S5RFlLhJ8eeqm_sex8-20">
          <mxGeometry relative="1" as="geometry" />
        </mxCell>
        <mxCell id="76S5RFlLhJ8eeqm_sex8-5" value="ms-payment" style="rounded=1;whiteSpace=wrap;html=1;fillColor=#dae8fc;strokeColor=#6c8ebf;" vertex="1" parent="1">
          <mxGeometry x="640" y="260" width="120" height="60" as="geometry" />
        </mxCell>
        <mxCell id="76S5RFlLhJ8eeqm_sex8-51" value="" style="edgeStyle=orthogonalEdgeStyle;rounded=0;orthogonalLoop=1;jettySize=auto;html=1;" edge="1" parent="1" source="76S5RFlLhJ8eeqm_sex8-6" target="76S5RFlLhJ8eeqm_sex8-22">
          <mxGeometry relative="1" as="geometry" />
        </mxCell>
        <mxCell id="76S5RFlLhJ8eeqm_sex8-6" value="ms-logistic" style="rounded=1;whiteSpace=wrap;html=1;fillColor=#dae8fc;strokeColor=#6c8ebf;" vertex="1" parent="1">
          <mxGeometry x="781" y="179" width="120" height="60" as="geometry" />
        </mxCell>
        <mxCell id="76S5RFlLhJ8eeqm_sex8-46" style="edgeStyle=orthogonalEdgeStyle;rounded=0;orthogonalLoop=1;jettySize=auto;html=1;" edge="1" parent="1" source="76S5RFlLhJ8eeqm_sex8-7" target="76S5RFlLhJ8eeqm_sex8-21">
          <mxGeometry relative="1" as="geometry" />
        </mxCell>
        <mxCell id="76S5RFlLhJ8eeqm_sex8-7" value="ms-inventary" style="rounded=1;whiteSpace=wrap;html=1;fillColor=#dae8fc;strokeColor=#6c8ebf;" vertex="1" parent="1">
          <mxGeometry x="500" y="260" width="120" height="60" as="geometry" />
        </mxCell>
        <mxCell id="76S5RFlLhJ8eeqm_sex8-18" value="Postgres&lt;div&gt;&lt;br&gt;&lt;/div&gt;" style="shape=cylinder3;whiteSpace=wrap;html=1;boundedLbl=1;backgroundOutline=1;size=15;" vertex="1" parent="1">
          <mxGeometry x="530" y="60" width="60" height="80" as="geometry" />
        </mxCell>
        <mxCell id="76S5RFlLhJ8eeqm_sex8-19" value="Postgres" style="shape=cylinder3;whiteSpace=wrap;html=1;boundedLbl=1;backgroundOutline=1;size=15;" vertex="1" parent="1">
          <mxGeometry x="811" y="350" width="60" height="80" as="geometry" />
        </mxCell>
        <mxCell id="76S5RFlLhJ8eeqm_sex8-20" value="Postgres" style="shape=cylinder3;whiteSpace=wrap;html=1;boundedLbl=1;backgroundOutline=1;size=15;" vertex="1" parent="1">
          <mxGeometry x="669.5" y="350" width="60" height="80" as="geometry" />
        </mxCell>
        <mxCell id="76S5RFlLhJ8eeqm_sex8-21" value="Postgres" style="shape=cylinder3;whiteSpace=wrap;html=1;boundedLbl=1;backgroundOutline=1;size=15;" vertex="1" parent="1">
          <mxGeometry x="530" y="350" width="60" height="80" as="geometry" />
        </mxCell>
        <mxCell id="76S5RFlLhJ8eeqm_sex8-22" value="Postgres" style="shape=cylinder3;whiteSpace=wrap;html=1;boundedLbl=1;backgroundOutline=1;size=15;" vertex="1" parent="1">
          <mxGeometry x="811" y="60" width="60" height="80" as="geometry" />
        </mxCell>
        <mxCell id="76S5RFlLhJ8eeqm_sex8-23" value="Mysql" style="shape=cylinder3;whiteSpace=wrap;html=1;boundedLbl=1;backgroundOutline=1;size=15;" vertex="1" parent="1">
          <mxGeometry x="670" y="60" width="60" height="80" as="geometry" />
        </mxCell>
        <mxCell id="76S5RFlLhJ8eeqm_sex8-72" style="edgeStyle=orthogonalEdgeStyle;rounded=0;orthogonalLoop=1;jettySize=auto;html=1;" edge="1" parent="1" source="76S5RFlLhJ8eeqm_sex8-24" target="76S5RFlLhJ8eeqm_sex8-67">
          <mxGeometry relative="1" as="geometry" />
        </mxCell>
        <mxCell id="76S5RFlLhJ8eeqm_sex8-24" value="Broker/RabbitMq/Kafika" style="strokeWidth=2;html=1;shape=mxgraph.flowchart.direct_data;whiteSpace=wrap;align=left;spacingTop=0;spacing=17;" vertex="1" parent="1">
          <mxGeometry x="470" y="-160" width="190" height="80" as="geometry" />
        </mxCell>
        <mxCell id="76S5RFlLhJ8eeqm_sex8-26" style="edgeStyle=orthogonalEdgeStyle;rounded=0;orthogonalLoop=1;jettySize=auto;html=1;" edge="1" parent="1">
          <mxGeometry relative="1" as="geometry">
            <mxPoint x="556.8426315789472" y="-79.18" as="sourcePoint" />
            <mxPoint x="559" y="30" as="targetPoint" />
            <Array as="points">
              <mxPoint x="559" y="-79" />
            </Array>
          </mxGeometry>
        </mxCell>
        <mxCell id="76S5RFlLhJ8eeqm_sex8-31" value="" style="edgeStyle=orthogonalEdgeStyle;rounded=0;orthogonalLoop=1;jettySize=auto;html=1;" edge="1" parent="1" source="76S5RFlLhJ8eeqm_sex8-27" target="76S5RFlLhJ8eeqm_sex8-30">
          <mxGeometry relative="1" as="geometry" />
        </mxCell>
        <mxCell id="76S5RFlLhJ8eeqm_sex8-27" value="Keycloak" style="rounded=1;whiteSpace=wrap;html=1;" vertex="1" parent="1">
          <mxGeometry x="90" y="80" width="120" height="60" as="geometry" />
        </mxCell>
        <mxCell id="76S5RFlLhJ8eeqm_sex8-30" value="Postgres" style="shape=cylinder3;whiteSpace=wrap;html=1;boundedLbl=1;backgroundOutline=1;size=15;" vertex="1" parent="1">
          <mxGeometry x="120" y="-60" width="60" height="80" as="geometry" />
        </mxCell>
        <mxCell id="76S5RFlLhJ8eeqm_sex8-33" style="edgeStyle=orthogonalEdgeStyle;rounded=0;orthogonalLoop=1;jettySize=auto;html=1;" edge="1" parent="1" source="76S5RFlLhJ8eeqm_sex8-32" target="76S5RFlLhJ8eeqm_sex8-1">
          <mxGeometry relative="1" as="geometry">
            <Array as="points">
              <mxPoint x="-75" y="250" />
            </Array>
          </mxGeometry>
        </mxCell>
        <mxCell id="76S5RFlLhJ8eeqm_sex8-39" value="&lt;font style=&quot;font-size: 14px;&quot;&gt;/api/...&lt;/font&gt;" style="edgeLabel;html=1;align=center;verticalAlign=middle;resizable=0;points=[];fontSize=14;" vertex="1" connectable="0" parent="76S5RFlLhJ8eeqm_sex8-33">
          <mxGeometry x="0.357" y="1" relative="1" as="geometry">
            <mxPoint x="-21" y="1" as="offset" />
          </mxGeometry>
        </mxCell>
        <mxCell id="76S5RFlLhJ8eeqm_sex8-43" style="edgeStyle=orthogonalEdgeStyle;rounded=0;orthogonalLoop=1;jettySize=auto;html=1;" edge="1" parent="1" source="76S5RFlLhJ8eeqm_sex8-32">
          <mxGeometry relative="1" as="geometry">
            <mxPoint x="-115" y="370" as="targetPoint" />
          </mxGeometry>
        </mxCell>
        <mxCell id="76S5RFlLhJ8eeqm_sex8-55" style="edgeStyle=orthogonalEdgeStyle;rounded=0;orthogonalLoop=1;jettySize=auto;html=1;entryX=0;entryY=0.5;entryDx=0;entryDy=0;" edge="1" parent="1" source="76S5RFlLhJ8eeqm_sex8-32" target="76S5RFlLhJ8eeqm_sex8-27">
          <mxGeometry relative="1" as="geometry">
            <Array as="points">
              <mxPoint x="-115" y="110" />
            </Array>
          </mxGeometry>
        </mxCell>
        <mxCell id="76S5RFlLhJ8eeqm_sex8-32" value="Reverse Proxy/Nginx&lt;div&gt;PORT: 80:80&lt;/div&gt;" style="rounded=1;whiteSpace=wrap;html=1;" vertex="1" parent="1">
          <mxGeometry x="-190" y="230" width="150" height="65" as="geometry" />
        </mxCell>
        <mxCell id="76S5RFlLhJ8eeqm_sex8-66" value="" style="edgeStyle=orthogonalEdgeStyle;rounded=0;orthogonalLoop=1;jettySize=auto;html=1;" edge="1" parent="1" source="76S5RFlLhJ8eeqm_sex8-34" target="76S5RFlLhJ8eeqm_sex8-65">
          <mxGeometry relative="1" as="geometry" />
        </mxCell>
        <mxCell id="76S5RFlLhJ8eeqm_sex8-71" value="Read on DB" style="edgeLabel;html=1;align=center;verticalAlign=middle;resizable=0;points=[];fontSize=14;" vertex="1" connectable="0" parent="76S5RFlLhJ8eeqm_sex8-66">
          <mxGeometry x="-0.0526" relative="1" as="geometry">
            <mxPoint as="offset" />
          </mxGeometry>
        </mxCell>
        <mxCell id="76S5RFlLhJ8eeqm_sex8-34" value="BFF(Node)&lt;div&gt;(Backend for Frontend)&lt;br&gt;PORT: 3000&lt;br&gt;&lt;/div&gt;" style="rounded=1;whiteSpace=wrap;html=1;fillColor=#dae8fc;strokeColor=#6c8ebf;" vertex="1" parent="1">
          <mxGeometry x="330" y="380" width="150" height="60" as="geometry" />
        </mxCell>
        <mxCell id="76S5RFlLhJ8eeqm_sex8-44" style="edgeStyle=orthogonalEdgeStyle;rounded=0;orthogonalLoop=1;jettySize=auto;html=1;entryX=0.5;entryY=1;entryDx=0;entryDy=0;" edge="1" parent="1" source="76S5RFlLhJ8eeqm_sex8-37" target="76S5RFlLhJ8eeqm_sex8-32">
          <mxGeometry relative="1" as="geometry" />
        </mxCell>
        <mxCell id="76S5RFlLhJ8eeqm_sex8-37" value="Microfrontends" style="rounded=1;whiteSpace=wrap;html=1;fillColor=#d5e8d4;strokeColor=#82b366;" vertex="1" parent="1">
          <mxGeometry x="-190" y="370" width="150" height="60" as="geometry" />
        </mxCell>
        <mxCell id="76S5RFlLhJ8eeqm_sex8-53" style="edgeStyle=orthogonalEdgeStyle;rounded=0;orthogonalLoop=1;jettySize=auto;html=1;" edge="1" parent="1" source="76S5RFlLhJ8eeqm_sex8-52">
          <mxGeometry relative="1" as="geometry">
            <mxPoint x="-200" y="265" as="targetPoint" />
          </mxGeometry>
        </mxCell>
        <mxCell id="76S5RFlLhJ8eeqm_sex8-52" value="Client" style="shape=umlActor;verticalLabelPosition=bottom;verticalAlign=top;html=1;outlineConnect=0;" vertex="1" parent="1">
          <mxGeometry x="-350" y="235" width="30" height="60" as="geometry" />
        </mxCell>
        <mxCell id="76S5RFlLhJ8eeqm_sex8-57" value="LOG/OBSERVABILLITY/MONITORING&amp;nbsp;" style="rounded=1;whiteSpace=wrap;html=1;verticalAlign=top;fontStyle=1" vertex="1" parent="1">
          <mxGeometry x="330" y="510" width="380" height="220" as="geometry" />
        </mxCell>
        <mxCell id="76S5RFlLhJ8eeqm_sex8-59" value="GRAFANA/PROMETHEUS" style="rounded=1;whiteSpace=wrap;html=1;" vertex="1" parent="1">
          <mxGeometry x="354.75" y="630" width="190" height="60" as="geometry" />
        </mxCell>
        <mxCell id="76S5RFlLhJ8eeqm_sex8-60" value="SPLUNK/KIBANA(ELASTIK)" style="rounded=1;whiteSpace=wrap;html=1;" vertex="1" parent="1">
          <mxGeometry x="354.75" y="555" width="190.5" height="60" as="geometry" />
        </mxCell>
        <mxCell id="76S5RFlLhJ8eeqm_sex8-61" value="SENTRY" style="rounded=1;whiteSpace=wrap;html=1;" vertex="1" parent="1">
          <mxGeometry x="560" y="555" width="120" height="60" as="geometry" />
        </mxCell>
        <mxCell id="76S5RFlLhJ8eeqm_sex8-64" style="edgeStyle=orthogonalEdgeStyle;rounded=0;orthogonalLoop=1;jettySize=auto;html=1;entryX=0.358;entryY=0.994;entryDx=0;entryDy=0;entryPerimeter=0;" edge="1" parent="1" source="76S5RFlLhJ8eeqm_sex8-57" target="76S5RFlLhJ8eeqm_sex8-16">
          <mxGeometry relative="1" as="geometry" />
        </mxCell>
        <mxCell id="76S5RFlLhJ8eeqm_sex8-65" value="&lt;div&gt;NoSQL/MongoDB&lt;/div&gt;&lt;div&gt;(Read only)&lt;/div&gt;" style="shape=cylinder3;whiteSpace=wrap;html=1;boundedLbl=1;backgroundOutline=1;size=15;" vertex="1" parent="1">
          <mxGeometry x="348.75" y="220" width="112.5" height="110" as="geometry" />
        </mxCell>
        <mxCell id="76S5RFlLhJ8eeqm_sex8-69" style="edgeStyle=orthogonalEdgeStyle;rounded=0;orthogonalLoop=1;jettySize=auto;html=1;" edge="1" parent="1" source="76S5RFlLhJ8eeqm_sex8-67" target="76S5RFlLhJ8eeqm_sex8-65">
          <mxGeometry relative="1" as="geometry" />
        </mxCell>
        <mxCell id="76S5RFlLhJ8eeqm_sex8-70" value="Write on DB" style="edgeLabel;html=1;align=center;verticalAlign=middle;resizable=0;points=[];fontSize=14;" vertex="1" connectable="0" parent="76S5RFlLhJ8eeqm_sex8-69">
          <mxGeometry x="-0.1579" y="2" relative="1" as="geometry">
            <mxPoint as="offset" />
          </mxGeometry>
        </mxCell>
        <mxCell id="76S5RFlLhJ8eeqm_sex8-67" value="cqrs-update-db" style="rounded=1;whiteSpace=wrap;html=1;fillColor=#dae8fc;strokeColor=#6c8ebf;" vertex="1" parent="1">
          <mxGeometry x="345" y="90" width="120" height="60" as="geometry" />
        </mxCell>
      </root>
    </mxGraphModel>
  </diagram>
</mxfile>
